#!OML:ASF E:/inclinewalkrobotboard/Project1/Captureday1/Session1/subject1.ASF
:FULLY-SPECIFIED
:DEGREES
101
root 0 0 0 1.5399662863811021 -3.868089524267202 1.8519854571955299
lowerback 12.239420150951243 0.9607070704534484 0.02503052648470444
upperback -4.446799731996629 1.2162712480514337 -0.6309348351572642
thorax -11.735669598511976 0.5625832521787767 -0.9369993822887583
lowerneck -6.067459021169503 1.8661242036998422 4.773923535086189
upperneck 18.109976620322115 3.4990143644979774 -8.585366697110766
head 6.648199989173954 1.3077590325810555 -3.2799278659652646
rclavicle 2.160860510249542E-15 -7.084385816469483E-16
rhumerus 21.089076514931193 15.62853582115657 -47.80843787939766
rradius 73.27713278951106
rwrist 26.693150664934915
rhand -34.61512484806306 -57.18074615996882
rfingers 7.1250200000000286
rthumb -7.717458840476899 -87.141901495242
lclavicle -7.401954097749368E-16 -7.49777154268178E-16
lhumerus 23.170032004313896 -14.45406933686272 44.74533184875359
lradius 71.82808392343144
lwrist -22.25351195576892
lhand -45.75359947375573 -71.9546783141488
lfingers 7.1250200000000286
lthumb -18.507674349691573 -42.73799988322564
rfemur -24.974076384495135 -1.950062027021512 17.77881397361103
rtibia 50.649285940615556
rfoot -34.268699881483776 -18.28975908520833
rtoes -21.87601019772597
lfemur -28.08284316697735 2.141817259485115 -17.154334813417442
ltibia 50.85255599205615
lfoot -35.558217286185894 -0.2702942566526847
ltoes -22.096940845881846
102
root 0 0 0 1.5399983439470493 -3.8680453534011314 1.8519004309398768
lowerback 12.239378219249803 0.9607127978277179 0.025086585725672683
upperback -4.446788362341586 1.2162853663606636 -0.6309072793499978
thorax -11.735626457332984 0.56258844578317 -0.9370049589002114
lowerneck -6.0675029632788275 1.866127820824844 4.773937032888939
upperneck 18.110036032214172 3.4990197763348156 -8.585390044715744
head 6.64822475767539 1.307758529742447 -3.2799371506616017
rclavicle 2.160231655298499E-15 -7.086394784426629E-16
rhumerus 21.088676104947425 15.62791873391255 -47.80796964159995
rradius 73.27681151118448
rwrist 26.693648125991444
rhand -34.61515247250142 -57.180907585860375
rfingers 7.1250200000000286
rthumb -7.717484377436522 -87.14206494626006
lclavicle -7.406342720051371E-16 -7.498940270679095E-16
lhumerus 23.16992205070374 -14.453869387589497 44.745271842137996
lradius 71.82795798074623
lwrist -22.253619596355534
lhand -45.753584152874964 -71.95479556766165
lfingers 7.1250200000000286
lthumb -18.50765644492113 -42.73811807892956
rfemur -24.971274412289137 -1.9492422646732344 17.78023317765895
rtibia 50.644524051722726
rfoot -34.271302754519525 -18.288852947697656
rtoes -21.879303406053403
lfemur -28.081410996493375 2.140928780518154 -17.15214174417595
ltibia 50.852498273519934
lfoot -35.552295423713424 -0.27354582397367855
ltoes -22.10114610320423
103
root 0 0 0 1.5402361652835537 -3.8698798531902208 1.8517415578776797
lowerback 12.23831589363739 0.9618699595595926 0.02537912206540549
upperback -4.446716467494623 1.2177463000383648 -0.6313294204093706
thorax -11.734854949126348 0.563311255227325 -0.9377317711752333
lowerneck -6.068205541415832 1.8658283423150024 4.773621878575353
upperneck 18.11164024952127 3.498444275403317 -8.584819489252721
head 6.648841535221912 1.3075028341510464 -3.2797524713785133
rclavicle 2.1632279456872874E-15 -7.086257284014448E-16
rhumerus 21.086804015411957 15.626776069625512 -47.808615024487665
rradius 73.27590958404721
rwrist 26.69344505479468
rhand -34.61469099360552 -57.177724448921715
rfingers 7.1250200000000286
rthumb -7.716615428128039 -87.13946173645647
lclavicle -7.387430639989052E-16 -7.325852120489197E-16
lhumerus 23.164555267940457 -14.448165489196107 44.744768865741314
lradius 71.82360835965113
lwrist -22.255742595974525
lhand -45.75178161631652 -71.95364903637052
lfingers 7.1250200000000286
lthumb -18.505779959919053 -42.73706336895377
rfemur -24.969049355764046 -1.9487633974034653 17.778142555507767
rtibia 50.65034105615718
rfoot -34.2623926659834 -18.29075289773049
rtoes -21.869378857377427
lfemur -28.079716251752636 2.1434099087851948 -17.148643298839033
ltibia 50.8627512051848
lfoot -35.524666213347814 -0.28253917194081435
ltoes -22.093612646421093
104
root 0 0 0 1.5400743802715842 -3.8687229080815753 1.8516865810196155
lowerback 12.239152421448102 0.9610860360051885 0.025373158244949956
upperback -4.446765659560344 1.216783500854239 -0.6309922172714358
thorax -11.735441781551588 0.562829661269433 -0.9372967650577737
lowerneck -6.067776450366169 1.866098631696872 4.7739084206243145
upperneck 18.110814254125458 3.4989511774587 -8.585406542887432
head 6.64851817782523 1.3077149140630353 -3.279948453601425
rclavicle 2.162336932886463E-15 -7.081735999507364E-16
rhumerus 21.08755035425571 15.626537973462435 -47.80724843791032
rradius 73.27585778030675
rwrist 26.69447775572019
rhand -34.61505535723014 -57.180872608956285
rfingers 7.1250200000000286
rthumb -7.71737838475754 -87.14187464223878
lclavicle -7.385884832170742E-16 -7.483942096202192E-16
lhumerus 23.168412972693048 -14.45153332218302 44.7448424575974
lradius 71.82616633837904
lwrist -22.254770212198665
lhand -45.75320932332036 -71.95536360543727
lfingers 7.1250200000000286
lthumb -18.507286886283175 -42.73876748089286
rfemur -24.967916325075706 -1.9521961790888644 17.777404217015174
rtibia 50.663322810681535
rfoot -34.26025697302033 -18.28596123886853
rtoes -21.876945315323905
lfemur -28.08301014361067 2.1415433871404583 -17.150036757805857
ltibia 50.86297602750015
lfoot -35.53888029857888 -0.28072814031771776
ltoes -22.09935637779624
105
root 0 0 0 1.5399146857400874 -3.8682876542000666 1.8518669776658645
lowerback 12.239303804841597 0.9608762190969558 0.025204333391908584
upperback -4.446805091084977 1.216498116473058 -0.6309746824814922
thorax -11.735596103954808 0.5626927360577909 -0.937156031002615
lowerneck -6.067568356252046 1.8661311899034072 4.773985976833314
upperneck 18.110539960292243 3.4990155102773386 -8.585492449706118
head 6.648396004639428 1.3077478625921461 -3.279981464171337
rclavicle 2.1600081577153015E-15 -7.090317034937665E-16
rhumerus 21.08753566534258 15.626397207824605 -47.807002746833476
rradius 73.27587061218571
rwrist 26.694651813506134
rhand -34.6151274946203 -57.18096008171266
rfingers 7.1250200000000286
rthumb -7.717459425060921 -87.14208636384383
lclavicle -7.406311334751001E-16 -7.494060827806742E-16
lhumerus 23.168624579232976 -14.451869881377558 44.74484162336922
lradius 71.82654047259996
lwrist -22.2546518998533
lhand -45.75336522016893 -71.95559942342578
lfingers 7.1250200000000286
lthumb -18.507435897990515 -42.738993740556026
rfemur -24.96857924391097 -1.9529798884149612 17.77606929015676
rtibia 50.66764548181117
rfoot -34.25666874838039 -18.28501244603825
rtoes -21.877298074991668
lfemur -28.081191233658778 2.1425498986635403 -17.151167620160333
ltibia 50.86722336540535
lfoot -35.53657970199326 -0.2829935255054048
ltoes -22.09790075008484
